<svg width="40" height="40" viewBox="0 0 40 40" fill="none" xmlns="http://www.w3.org/2000/svg">
<path fill-rule="evenodd" clip-rule="evenodd" d="M20.7611 27.4648V27.5608C20.7931 28.2168 20.2811 28.7768 19.6091 28.7928H19.5771C18.9211 28.7928 18.3931 28.2968 18.3771 27.6408C18.3451 26.9848 18.8571 26.3928 19.5291 26.3608C20.1691 26.3288 20.7451 26.8088 20.7611 27.4648ZM19.6091 23.7848H19.5771C18.9211 23.7848 18.3931 23.2888 18.3771 22.6328C18.3451 21.9768 18.8571 21.3848 19.5291 21.3528C20.1691 21.3208 20.7451 21.8008 20.7611 22.4568V22.5368C20.7931 23.2088 20.2811 23.7688 19.6091 23.7848ZM13.6731 27.4648V27.5608C13.7051 28.2168 13.1931 28.7768 12.5211 28.7928H12.4731C11.8331 28.7928 11.3051 28.2968 11.2731 27.6408C11.2571 26.9848 11.7691 26.3928 12.4251 26.3608C13.0651 26.3288 13.6571 26.8088 13.6731 27.4648ZM12.5211 23.7848H12.4731C11.8331 23.7848 11.3051 23.2888 11.2731 22.6328C11.2571 21.9768 11.7691 21.3848 12.4251 21.3528C13.0651 21.3208 13.6411 21.8008 13.6731 22.4568V22.5368C13.7051 23.2088 13.1931 23.7688 12.5211 23.7848ZM13.6091 15.3688C12.9531 15.3688 12.4091 14.8408 12.4091 14.1688C12.4091 13.5128 12.9531 12.9688 13.6091 12.9688H14.9051V11.6728C14.9051 11.0168 15.4331 10.4728 16.1051 10.4728C16.7611 10.4728 17.3051 11.0168 17.3051 11.6728V12.9688H18.5851C19.2411 12.9688 19.7851 13.5128 19.7851 14.1688C19.7851 14.8408 19.2411 15.3688 18.5851 15.3688H17.3051V16.6488C17.3051 17.3208 16.7611 17.8488 16.1051 17.8488C15.4331 17.8488 14.9051 17.3208 14.9051 16.6488V15.3688H13.6091ZM34.7611 31.1928H34.6171C34.352 31.1928 34.1371 30.9779 34.1371 30.7128V15.1448C34.1371 13.4808 32.7931 12.1208 31.1291 12.1208H29.2411C28.976 12.1208 28.7611 12.3356 28.7611 12.6008V30.7128C28.7611 30.9779 28.5462 31.1928 28.2811 31.1928H27.1611C26.896 31.1928 26.6811 30.9779 26.6811 30.7128V9.51275C26.6811 7.44875 25.0011 5.76875 22.9211 5.76875H9.27313C7.20913 5.76875 5.51313 7.44875 5.51313 9.51275V30.8248C5.51313 31.028 5.34836 31.1928 5.14513 31.1928C4.87313 31.1928 4.61713 31.2888 4.40913 31.4488C4.12113 31.6728 3.94513 32.0088 3.94513 32.3928C3.94513 32.9048 4.26513 33.3368 4.69713 33.4968C4.84113 33.5608 4.98513 33.5928 5.14513 33.5928H34.7611C35.4171 33.5928 35.9611 33.0648 35.9611 32.3928C35.9611 31.7368 35.4171 31.1928 34.7611 31.1928Z" fill="#1179FC"/>
</svg>
