<svg width="40" height="40" viewBox="0 0 40 40" fill="none" xmlns="http://www.w3.org/2000/svg">
<path fill-rule="evenodd" clip-rule="evenodd" d="M29.6667 16.334L23 21.6673C22.1667 22.334 21.1667 22.6673 20 22.6673C19 22.6673 18 22.334 17 21.6673L10.3333 16.1673C9.83333 15.6673 9.66667 15.0007 10.1667 14.334C10.6667 13.6673 11.3333 13.6673 12 14.1673L18.6667 19.5007C19.5 20.1673 20.6667 20.1673 21.3333 19.5007L28 14.1673C28.5 13.6673 29.3333 13.834 29.8333 14.334C30.3333 15.0007 30.1667 15.834 29.6667 16.334ZM27.3333 5.66733H12.6667C7.83333 5.66733 4.16667 9.66733 4.16667 14.834V25.1673C4.16667 27.834 5.16667 30.334 6.83333 32.0007C8.33333 33.5007 10.3333 34.334 12.6667 34.334H27.3333C29.5 34.334 31.5 33.5007 33.1667 32.0007C34.8333 30.334 35.8333 27.834 35.8333 25.1673V14.834C35.8333 9.66733 32.1667 5.66733 27.3333 5.66733Z" fill="#1179FC"/>
</svg>
