<svg width="40" height="40" viewBox="0 0 40 40" fill="none" xmlns="http://www.w3.org/2000/svg">
<path d="M24.0305 9.14991C23.2371 9.00335 22.5085 9.50967 22.3574 10.2841C22.2064 11.0586 22.7143 11.8148 23.4861 11.9663C25.8099 12.4193 27.6041 14.2181 28.0589 16.5498C28.1884 17.221 28.7793 17.7107 29.4598 17.7107C29.5511 17.7107 29.6424 17.7024 29.7354 17.6857C30.5072 17.5308 31.0151 16.7763 30.8641 16.0002C30.1852 12.5176 27.5046 9.82778 24.0305 9.14991Z" fill="#1179FC"/>
<path d="M23.9268 3.34656C23.555 3.29326 23.1815 3.40319 22.8844 3.63969C22.579 3.87953 22.3881 4.22596 22.3466 4.61402C22.2587 5.39848 22.8247 6.108 23.6081 6.19627C29.0109 6.79919 33.2103 11.008 33.8178 16.4276C33.8991 17.1537 34.5082 17.7017 35.2353 17.7017C35.29 17.7017 35.3431 17.6984 35.3979 17.6917C35.778 17.6501 36.1166 17.4619 36.3556 17.1621C36.593 16.8623 36.7009 16.4892 36.6577 16.1078C35.9009 9.34577 30.6674 4.09771 23.9268 3.34656Z" fill="#1179FC"/>
<path fill-rule="evenodd" clip-rule="evenodd" d="M18.3862 21.6206C25.0347 28.2673 26.543 20.5779 30.7761 24.808C34.8571 28.8879 37.2027 29.7053 32.0321 34.8745C31.3844 35.395 27.2694 41.6571 12.8077 27.1994C-1.65579 12.74 4.60265 8.62074 5.12329 7.97325C10.3065 2.78974 11.1098 5.14897 15.1908 9.22888C19.424 13.4608 11.7378 14.974 18.3862 21.6206Z" fill="#1179FC"/>
</svg>
